# This file uses centimeters as units for non-parametric coordinates.

v -0.171254 -0.285805 -0.498298
v -0.002927 -0.285805 -0.573960
v -0.171254 -0.101255 -0.498298
v -0.002927 -0.101255 -0.573960
v -0.246916 -0.101255 -0.666625
v -0.078589 -0.101255 -0.742287
v -0.246916 -0.285805 -0.666625
v -0.078589 -0.285805 -0.742287
vt 0.375000 0.000000
vt 0.625000 0.000000
vt 0.375000 0.250000
vt 0.625000 0.250000
vt 0.375000 0.500000
vt 0.625000 0.500000
vt 0.375000 0.750000
vt 0.625000 0.750000
vt 0.375000 1.000000
vt 0.625000 1.000000
vt 0.875000 0.000000
vt 0.875000 0.250000
vt 0.125000 0.000000
vt 0.125000 0.250000
vn 0.409981 0.000000 0.912094
vn 0.409981 0.000000 0.912094
vn 0.409981 0.000000 0.912094
vn 0.409981 0.000000 0.912094
vn 0.000000 1.000000 0.000000
vn 0.000000 1.000000 0.000000
vn 0.000000 1.000000 0.000000
vn 0.000000 1.000000 0.000000
vn -0.409981 0.000000 -0.912094
vn -0.409981 0.000000 -0.912094
vn -0.409981 0.000000 -0.912094
vn -0.409981 0.000000 -0.912094
vn 0.000000 -1.000000 0.000000
vn 0.000000 -1.000000 0.000000
vn 0.000000 -1.000000 0.000000
vn 0.000000 -1.000000 0.000000
vn 0.912094 0.000000 -0.409981
vn 0.912094 0.000000 -0.409981
vn 0.912094 0.000000 -0.409981
vn 0.912094 0.000000 -0.409981
vn -0.912094 0.000000 0.409981
vn -0.912094 0.000000 0.409981
vn -0.912094 0.000000 0.409981
vn -0.912094 0.000000 0.409981
f 1/1/1 2/2/2 4/4/3 3/3/4
f 3/3/5 4/4/6 6/6/7 5/5/8
f 5/5/9 6/6/10 8/8/11 7/7/12
f 7/7/13 8/8/14 2/10/15 1/9/16
f 2/2/17 8/11/18 6/12/19 4/4/20
f 7/13/21 1/1/22 3/3/23 5/14/24
